<svg xmlns="http://www.w3.org/2000/svg" viewBox="0 0 670.1142 259.1602">
  <title>eemi-logo-full-color-rgb</title>
  <g id="full-rgb">
    <g id="type">
      <g id="logoMark">
        <path id="logoMark_PathItem_" data-name="logoMark &lt;PathItem&gt;" d="M578.3294,220.6719a19.1265,19.1265,0,1,0,19.1265,19.1269A19.1483,19.1483,0,0,0,578.3294,220.6719Z" style="fill: #ffb700"/>
        <path id="logoMark_PathItem_2" data-name="logoMark &lt;PathItem&gt;" d="M412.27,220.6719a19.1265,19.1265,0,1,0,19.127,19.1269A19.1482,19.1482,0,0,0,412.27,220.6719Z" style="fill: #e643ae"/>
        <path id="logoMark_PathItem_3" data-name="logoMark &lt;PathItem&gt;" d="M495.27,220.6719a19.1265,19.1265,0,1,0,19.1265,19.1269A19.1483,19.1483,0,0,0,495.27,220.6719Z" style="fill: #484ce5"/>
        <path id="logoMark_PathItem_4" data-name="logoMark &lt;PathItem&gt;" d="M597.7879,137.7622A61.1424,61.1424,0,0,0,536.68,78.5762h-.0161a60.8036,60.8036,0,0,0-41.4229,16.1826,61.14,61.14,0,0,0-102.4282,43.0034h-.0493V139.76l-.0029,2.0034h.0029v55.37h38.6035v-55.37h.01v-2a22.3932,22.3932,0,0,1,44.7856-.2022v57.5723h38.2637v-55.79l.01-1.5674a23.0788,23.0788,0,0,1,.4507-4.3892,22.398,22.398,0,0,1,44.3355,4.3882v57.3584h38.6138V137.7622Z" style="fill: #1a1b41"/>
      </g>
      <path id="type_CompoundPathItem_" data-name="type &lt;CompoundPathItem&gt;" d="M170.404,183.2709H40.704c4.484,25.1821,21.0415,39.67,46.5677,39.67,18.2821,0,28.9755-6.9,34.4947-18.9726H166.61C156.261,239.8429,126.2508,259.16,85.5471,259.16,36.22,259.16,0,222.25,0,169.4739S36.22,79.7877,85.5471,79.7877s85.5468,36.9088,85.5468,89.6862C171.0939,174.3022,170.749,178.7873,170.404,183.2709Zm-129.3551-29.32h88.9964c-4.4844-24.1469-20.352-37.9453-44.4982-37.9453S45.533,129.8043,41.0489,153.9512Z" style="fill: #1a1b41"/>
      <path id="type_CompoundPathItem_2" data-name="type &lt;CompoundPathItem&gt;" d="M366.6405,183.2709h-129.7c4.484,25.1821,21.0415,39.67,46.5677,39.67,18.2821,0,28.9755-6.9,34.4947-18.9726H362.846c-10.3481,35.875-40.3587,55.1923-81.0624,55.1923-49.3275,0-85.5471-36.91-85.5471-89.6863s36.22-89.6862,85.5471-89.6862S367.33,116.6965,367.33,169.4739C367.33,174.3022,366.9854,178.7873,366.6405,183.2709Zm-129.3551-29.32h88.9964c-4.4844-24.1469-20.352-37.9453-44.4982-37.9453S241.7694,129.8043,237.2854,153.9512Z" style="fill: #1a1b41"/>
      <path id="type_CompoundPathItem_3" data-name="type &lt;CompoundPathItem&gt;" d="M618.3718,25.8712C618.3718,11.0376,629.41,0,644.243,0c15.1778,0,25.8712,11.0376,25.8712,25.8712,0,14.4875-10.6934,25.8711-25.8712,25.8711A25.4091,25.4091,0,0,1,618.3718,25.8712Zm5.1743,232.839V86.2363H664.94V258.71Z" style="fill: #1a1b41"/>
    </g>
  </g>
</svg>
